<svg width="111" height="111" viewBox="0 0 111 111" fill="none" xmlns="http://www.w3.org/2000/svg">
<g filter="url(#filter0_d)">
<circle cx="55.5" cy="55.5" r="31" fill="#5191FA" stroke="white"/>
<path d="M69.899 67.4688H70.899V66.4688V44.5313V43.5313H69.899H41.099H40.0951L40.099 44.5351L40.117 49.1786L40.1192 49.7476L40.6096 50.0364C42.4531 51.122 43.699 53.1563 43.699 55.5C43.699 57.8221 42.438 59.8763 40.5916 60.9636L40.099 61.2537V61.8253V66.4688V67.4688H41.099H69.899ZM50.3521 61.0232L48.446 57.6644L50.1953 59.0604L50.5919 59.3769L51.0815 59.2437L55.3835 58.0737L56.6271 57.7355L55.9905 56.6148L52.3048 50.1265L53.0429 49.923L59.8513 56.3722L60.2586 56.7581L60.8002 56.6115L65.1904 55.4238C65.1907 55.4237 65.191 55.4236 65.1913 55.4235C65.3758 55.3742 65.5725 55.4004 65.7399 55.4984C65.9053 55.5952 66.0313 55.756 66.0865 55.9504C66.1338 56.1546 66.1021 56.369 65.9996 56.5486C65.8966 56.729 65.7317 56.8579 65.543 56.9137L50.3521 61.0232ZM41.099 41.875H70.241C71.3819 41.875 72.499 42.9594 72.499 44.5313V66.4688C72.499 67.9421 71.3122 69.125 69.899 69.125H41.099C39.6859 69.125 38.499 67.9421 38.499 66.4688V60.0465C40.5752 59.5826 42.099 57.7042 42.099 55.5C42.099 53.3006 40.5803 51.4214 38.517 50.9548V44.5313C38.517 43.0513 39.6923 41.875 41.099 41.875Z" fill="white" stroke="white" stroke-width="2"/>
</g>
<defs>
<filter id="filter0_d" x="0" y="0" width="111" height="111" filterUnits="userSpaceOnUse" color-interpolation-filters="sRGB">
<feFlood flood-opacity="0" result="BackgroundImageFix"/>
<feColorMatrix in="SourceAlpha" type="matrix" values="0 0 0 0 0 0 0 0 0 0 0 0 0 0 0 0 0 0 127 0" result="hardAlpha"/>
<feOffset/>
<feGaussianBlur stdDeviation="12"/>
<feColorMatrix type="matrix" values="0 0 0 0 0 0 0 0 0 0 0 0 0 0 0 0 0 0 0.45 0"/>
<feBlend mode="normal" in2="BackgroundImageFix" result="effect1_dropShadow"/>
<feBlend mode="normal" in="SourceGraphic" in2="effect1_dropShadow" result="shape"/>
</filter>
</defs>
</svg>
