<svg width="23" height="23" viewBox="0 0 23 23" fill="none" xmlns="http://www.w3.org/2000/svg">
<path d="M19.7107 4.02026H2.8854C2.56666 4.02026 2.26098 4.1469 2.0356 4.37232C1.81021 4.59773 1.68359 4.90346 1.68359 5.22225V17.2421C1.68359 17.5609 1.81021 17.8666 2.0356 18.0921C2.26098 18.3175 2.56666 18.4441 2.8854 18.4441H19.7107C20.0295 18.4441 20.3352 18.3175 20.5605 18.0921C20.7859 17.8666 20.9125 17.5609 20.9125 17.2421V5.22225C20.9125 4.90346 20.7859 4.59773 20.5605 4.37232C20.3352 4.1469 20.0295 4.02026 19.7107 4.02026V4.02026ZM18.7853 17.2421H3.8829L8.08924 12.8909L7.22393 12.0555L2.8854 16.545V6.13576L10.3546 13.5701C10.5798 13.7939 10.8844 13.9196 11.2019 13.9196C11.5194 13.9196 11.824 13.7939 12.0492 13.5701L19.7107 5.94945V16.4668L15.2881 12.0435L14.4408 12.8909L18.7853 17.2421ZM3.67259 5.22225H18.7373L11.2019 12.7166L3.67259 5.22225Z" fill="#C4C4C4"/>
</svg>
