<svg width="117" height="39" viewBox="0 0 117 39" fill="none" xmlns="http://www.w3.org/2000/svg">
<rect x="0.365234" y="0.242188" width="116.275" height="38.5387" rx="5" fill="#395899"/>
<path d="M35.1248 23H36.4416V19.1946H40.149V18.0653H36.4416V15.4062H40.5368V14.2727H35.1248V23ZM43.9352 23.1449C45.0176 23.1449 45.627 22.5952 45.8699 22.1051H45.921V23H47.1653V18.6534C47.1653 16.7486 45.6653 16.3693 44.6255 16.3693C43.4409 16.3693 42.35 16.8466 41.9238 18.0398L43.1213 18.3125C43.3088 17.848 43.786 17.4006 44.6426 17.4006C45.465 17.4006 45.8869 17.831 45.8869 18.5724V18.6023C45.8869 19.0668 45.4096 19.0582 44.2335 19.1946C42.9934 19.3395 41.7235 19.6634 41.7235 21.1506C41.7235 22.4375 42.6909 23.1449 43.9352 23.1449ZM44.2122 22.1222C43.492 22.1222 42.9721 21.7983 42.9721 21.1676C42.9721 20.4858 43.5772 20.2429 44.3145 20.1449C44.7278 20.0895 45.7079 19.9787 45.8912 19.7955V20.6392C45.8912 21.4148 45.2733 22.1222 44.2122 22.1222ZM51.6195 23.1321C53.1664 23.1321 54.1678 22.2031 54.3084 20.929H53.0684C52.9064 21.6364 52.3567 22.054 51.628 22.054C50.5499 22.054 49.8553 21.1548 49.8553 19.7273C49.8553 18.3253 50.5627 17.4432 51.628 17.4432C52.4377 17.4432 52.932 17.9545 53.0684 18.5682H54.3084C54.1721 17.2472 53.0939 16.3693 51.6067 16.3693C49.7615 16.3693 48.5684 17.7585 48.5684 19.7571C48.5684 21.7301 49.7189 23.1321 51.6195 23.1321ZM58.492 23.1321C59.9196 23.1321 60.9295 22.429 61.2193 21.3636L60.0133 21.1463C59.7832 21.7642 59.2292 22.0795 58.5048 22.0795C57.4139 22.0795 56.6809 21.3722 56.6468 20.1108H61.3002V19.6591C61.3002 17.294 59.8855 16.3693 58.4025 16.3693C56.5787 16.3693 55.377 17.7585 55.377 19.7699C55.377 21.8026 56.5616 23.1321 58.492 23.1321ZM56.6511 19.1562C56.7022 18.2273 57.3755 17.4219 58.411 17.4219C59.3997 17.4219 60.0474 18.1548 60.0517 19.1562H56.6511ZM62.8162 23H64.0605V21.9815H64.1671C64.3972 22.3991 64.8659 23.1278 66.0591 23.1278C67.6444 23.1278 68.7949 21.858 68.7949 19.7401C68.7949 17.6179 67.6273 16.3693 66.0463 16.3693C64.8319 16.3693 64.3929 17.1108 64.1671 17.5156H64.0904V14.2727H62.8162V23ZM64.0648 19.7273C64.0648 18.3594 64.6614 17.4517 65.7736 17.4517C66.9284 17.4517 67.508 18.4276 67.508 19.7273C67.508 21.0398 66.9114 22.0412 65.7736 22.0412C64.6784 22.0412 64.0648 21.1037 64.0648 19.7273ZM72.9828 23.1321C74.8279 23.1321 76.0339 21.7812 76.0339 19.7571C76.0339 17.7202 74.8279 16.3693 72.9828 16.3693C71.1376 16.3693 69.9316 17.7202 69.9316 19.7571C69.9316 21.7812 71.1376 23.1321 72.9828 23.1321ZM72.987 22.0625C71.7811 22.0625 71.2186 21.0099 71.2186 19.7528C71.2186 18.5 71.7811 17.4347 72.987 17.4347C74.1845 17.4347 74.747 18.5 74.747 19.7528C74.747 21.0099 74.1845 22.0625 72.987 22.0625ZM80.2132 23.1321C82.0584 23.1321 83.2644 21.7812 83.2644 19.7571C83.2644 17.7202 82.0584 16.3693 80.2132 16.3693C78.3681 16.3693 77.1621 17.7202 77.1621 19.7571C77.1621 21.7812 78.3681 23.1321 80.2132 23.1321ZM80.2175 22.0625C79.0115 22.0625 78.449 21.0099 78.449 19.7528C78.449 18.5 79.0115 17.4347 80.2175 17.4347C81.415 17.4347 81.9775 18.5 81.9775 19.7528C81.9775 21.0099 81.415 22.0625 80.2175 22.0625ZM84.6866 23H85.9608V20.6776L86.5957 20.0426L88.8201 23H90.3841L87.5545 19.2628L90.2051 16.4545H88.6795L86.0716 19.2244H85.9608V14.2727H84.6866V23Z" fill="white"/>
<path d="M24.5629 26.5508V19.4689H26.9655L27.3226 16.6961H24.5629V14.9299C24.5629 14.1298 24.7871 13.582 25.9419 13.582H27.4052V11.1099C26.6932 11.034 25.9776 10.9974 25.2616 11.0001C23.1379 11.0001 21.6799 12.2893 21.6799 14.656V16.6909H19.293V19.4637H21.6851V26.5508H24.5629Z" fill="white"/>
</svg>
