<svg width="117" height="39" viewBox="0 0 117 39" fill="none" xmlns="http://www.w3.org/2000/svg">
<rect x="0.200195" y="0.242188" width="116.275" height="38.5387" rx="5" fill="#F34A38"/>
<path d="M57.7664 17.0899H59.1173C58.8232 15.3896 57.3701 14.2135 55.4866 14.2135C53.2281 14.2135 51.5789 15.9138 51.5789 18.7007C51.5789 21.462 53.1812 23.1794 55.5463 23.1794C57.6642 23.1794 59.1769 21.7902 59.1769 19.587V18.5941H55.7465V19.6808H57.9028C57.873 21.087 56.944 21.9777 55.5463 21.9777C54.0079 21.9777 52.8872 20.8143 52.8872 18.6922C52.8872 16.5785 54.0164 15.4152 55.4951 15.4152C56.6542 15.4152 57.4383 16.0544 57.7664 17.0899ZM63.5033 23.1922C65.3485 23.1922 66.5544 21.8413 66.5544 19.8172C66.5544 17.7802 65.3485 16.4294 63.5033 16.4294C61.6581 16.4294 60.4521 17.7802 60.4521 19.8172C60.4521 21.8413 61.6581 23.1922 63.5033 23.1922ZM63.5075 22.1226C62.3016 22.1226 61.7391 21.07 61.7391 19.8129C61.7391 18.5601 62.3016 17.4947 63.5075 17.4947C64.705 17.4947 65.2675 18.5601 65.2675 19.8129C65.2675 21.07 64.705 22.1226 63.5075 22.1226ZM70.7338 23.1922C72.5789 23.1922 73.7849 21.8413 73.7849 19.8172C73.7849 17.7802 72.5789 16.4294 70.7338 16.4294C68.8886 16.4294 67.6826 17.7802 67.6826 19.8172C67.6826 21.8413 68.8886 23.1922 70.7338 23.1922ZM70.738 22.1226C69.532 22.1226 68.9695 21.07 68.9695 19.8129C68.9695 18.5601 69.532 17.4947 70.738 17.4947C71.9355 17.4947 72.498 18.5601 72.498 19.8129C72.498 21.07 71.9355 22.1226 70.738 22.1226ZM77.9514 25.651C79.6176 25.651 80.9046 24.8882 80.9046 23.2049V16.5146H79.656V17.5757H79.5622C79.3364 17.1709 78.8847 16.4294 77.6659 16.4294C76.085 16.4294 74.9216 17.678 74.9216 19.7618C74.9216 21.8498 76.1105 22.962 77.6574 22.962C78.8591 22.962 79.3236 22.2845 79.5537 21.8669H79.6347V23.1538C79.6347 24.1808 78.9316 24.624 77.9642 24.624C76.9031 24.624 76.4898 24.0913 76.2639 23.7163L75.1688 24.168C75.5139 24.9691 76.3875 25.651 77.9514 25.651ZM77.9387 21.9052C76.8009 21.9052 76.2085 21.0316 76.2085 19.7447C76.2085 18.4876 76.7881 17.5118 77.9387 17.5118C79.0509 17.5118 79.6475 18.4194 79.6475 19.7447C79.6475 21.0956 79.0381 21.9052 77.9387 21.9052ZM83.8875 14.3328H82.6134V23.0601H83.8875V14.3328ZM88.4227 23.1922C89.8502 23.1922 90.8602 22.489 91.1499 21.4237L89.944 21.2064C89.7139 21.8243 89.1599 22.1396 88.4355 22.1396C87.3445 22.1396 86.6116 21.4322 86.5775 20.1709H91.2309V19.7191C91.2309 17.3541 89.8161 16.4294 88.3332 16.4294C86.5093 16.4294 85.3076 17.8186 85.3076 19.8299C85.3076 21.8626 86.4923 23.1922 88.4227 23.1922ZM86.5818 19.2163C86.6329 18.2873 87.3062 17.4819 88.3417 17.4819C89.3303 17.4819 89.9781 18.2149 89.9823 19.2163H86.5818Z" fill="white"/>
<path d="M43.4836 23.6619V20.3008H46.8456V17.781H43.4836V14.4198H40.9641V17.781H37.6035V20.3008H40.9641V23.6619H43.4836ZM27.5298 14.3282C29.1026 14.3282 30.1617 15.0001 30.7642 15.5721L33.1545 13.2536C31.6998 11.8931 29.8022 11.0601 27.5298 11.0601C22.8963 11.0587 19.1289 14.8238 19.1289 19.4622C19.1289 24.1007 22.8963 27.8658 27.5298 27.8658C32.3786 27.8658 35.5976 24.4547 35.5976 19.6566C35.5976 18.9583 35.5088 18.4626 35.3852 17.9351H27.5257V21.0672H32.1509C31.9316 22.3875 30.7475 24.6157 27.5298 24.6157C24.7494 24.6157 22.4812 22.3042 22.4812 19.4734C22.4812 16.6384 24.7494 14.3282 27.5298 14.3282Z" fill="white"/>
</svg>
