<svg width="23" height="23" viewBox="0 0 23 23" fill="none" xmlns="http://www.w3.org/2000/svg">
<g clip-path="url(#clip0)">
<path d="M2.51048 1.88764C2.33118 1.88764 2.15924 1.95887 2.03246 2.08567C1.90568 2.21246 1.83446 2.38444 1.83446 2.56375V6.62046C1.83446 6.79978 1.76323 6.97175 1.63646 7.09855C1.50968 7.22535 1.33773 7.29658 1.15844 7.29658C0.979149 7.29658 0.807201 7.22535 0.680423 7.09855C0.553645 6.97175 0.482422 6.79978 0.482422 6.62046V2.56375C0.482422 2.0258 0.696091 1.50988 1.07642 1.12949C1.45676 0.749101 1.9726 0.5354 2.51048 0.5354L6.56658 0.5354C6.74587 0.5354 6.91782 0.606634 7.0446 0.733431C7.17138 0.860227 7.2426 1.0322 7.2426 1.21152C7.2426 1.39084 7.17138 1.56281 7.0446 1.68961C6.91782 1.8164 6.74587 1.88764 6.56658 1.88764H2.51048ZM15.3548 1.21152C15.3548 1.0322 15.426 0.860227 15.5528 0.733431C15.6796 0.606634 15.8515 0.5354 16.0308 0.5354H20.0869C20.6248 0.5354 21.1407 0.749101 21.521 1.12949C21.9013 1.50988 22.115 2.0258 22.115 2.56375V6.62046C22.115 6.79978 22.0438 6.97175 21.917 7.09855C21.7902 7.22535 21.6183 7.29658 21.439 7.29658C21.2597 7.29658 21.0877 7.22535 20.961 7.09855C20.8342 6.97175 20.763 6.79978 20.763 6.62046V2.56375C20.763 2.38444 20.6917 2.21246 20.565 2.08567C20.4382 1.95887 20.2662 1.88764 20.0869 1.88764H16.0308C15.8515 1.88764 15.6796 1.8164 15.5528 1.68961C15.426 1.56281 15.3548 1.39084 15.3548 1.21152V1.21152ZM1.15844 15.41C1.33773 15.41 1.50968 15.4812 1.63646 15.608C1.76323 15.7348 1.83446 15.9068 1.83446 16.0861V20.1428C1.83446 20.3221 1.90568 20.4941 2.03246 20.6209C2.15924 20.7477 2.33118 20.8189 2.51048 20.8189H6.56658C6.74587 20.8189 6.91782 20.8902 7.0446 21.017C7.17138 21.1438 7.2426 21.3157 7.2426 21.4951C7.2426 21.6744 7.17138 21.8463 7.0446 21.9731C6.91782 22.0999 6.74587 22.1712 6.56658 22.1712H2.51048C1.9726 22.1712 1.45676 21.9575 1.07642 21.5771C0.696091 21.1967 0.482422 20.6808 0.482422 20.1428L0.482422 16.0861C0.482422 15.9068 0.553645 15.7348 0.680423 15.608C0.807201 15.4812 0.979149 15.41 1.15844 15.41V15.41ZM21.439 15.41C21.6183 15.41 21.7902 15.4812 21.917 15.608C22.0438 15.7348 22.115 15.9068 22.115 16.0861V20.1428C22.115 20.6808 21.9013 21.1967 21.521 21.5771C21.1407 21.9575 20.6248 22.1712 20.0869 22.1712H16.0308C15.8515 22.1712 15.6796 22.0999 15.5528 21.9731C15.426 21.8463 15.3548 21.6744 15.3548 21.4951C15.3548 21.3157 15.426 21.1438 15.5528 21.017C15.6796 20.8902 15.8515 20.8189 16.0308 20.8189H20.0869C20.2662 20.8189 20.4382 20.7477 20.565 20.6209C20.6917 20.4941 20.763 20.3221 20.763 20.1428V16.0861C20.763 15.9068 20.8342 15.7348 20.961 15.608C21.0877 15.4812 21.2597 15.41 21.439 15.41Z" fill="#C4C4C4"/>
<path d="M4.53856 19.4668C4.53856 19.4668 3.18652 19.4668 3.18652 18.1146C3.18652 16.7623 4.53856 12.7056 11.2987 12.7056C18.0589 12.7056 19.4109 16.7623 19.4109 18.1146C19.4109 19.4668 18.0589 19.4668 18.0589 19.4668H4.53856ZM15.3548 7.2967C15.3548 8.3726 14.9275 9.40444 14.1668 10.1652C13.4062 10.926 12.3745 11.3534 11.2987 11.3534C10.223 11.3534 9.1913 10.926 8.43064 10.1652C7.66997 9.40444 7.24263 8.3726 7.24263 7.2967C7.24263 6.22079 7.66997 5.18895 8.43064 4.42817C9.1913 3.66739 10.223 3.23999 11.2987 3.23999C12.3745 3.23999 13.4062 3.66739 14.1668 4.42817C14.9275 5.18895 15.3548 6.22079 15.3548 7.2967V7.2967Z" fill="#C4C4C4"/>
</g>
<defs>
<clipPath id="clip0">
<rect width="21.6326" height="21.6358" fill="white" transform="translate(0.482422 0.5354)"/>
</clipPath>
</defs>
</svg>
