<svg width="26" height="25" viewBox="0 0 26 25" fill="none" xmlns="http://www.w3.org/2000/svg">
<path d="M14.1022 1.90435C13.1166 2.159 12.2044 2.641 11.4386 3.31172C10.6728 3.98243 10.0748 4.82322 9.6924 5.76671C9.31005 6.71019 9.15401 7.73014 9.23679 8.7448C9.31956 9.75947 9.63885 10.7407 10.1691 11.6097L4.7685 20.7788L5.85673 24.9866L10.0643 23.8985L15.4648 14.7294C16.4011 14.7684 17.3347 14.6051 18.2021 14.2507C19.0695 13.8962 19.8503 13.3589 20.4913 12.6753C21.1323 11.9918 21.6184 11.1781 21.9164 10.2896C22.2145 9.40122 22.3175 8.45897 22.2185 7.52711C22.1195 6.59525 21.8208 5.69568 21.3427 4.8897C20.8646 4.08373 20.2184 3.39029 19.4481 2.85665C18.6778 2.32301 17.8015 1.96171 16.879 1.79737C15.9565 1.63304 15.0094 1.66952 14.1022 1.90435V1.90435ZM17.0042 13.1252C16.5213 13.2498 16.0227 13.3026 15.5244 13.2819L14.657 13.2459L14.2166 13.9935L12.5629 16.8012L11.3459 16.0849L10.6108 17.333L11.8279 18.05L11.0034 19.4499L9.78625 18.7329L9.05113 19.981L10.2683 20.698L9.12089 22.646L6.8965 23.2213L6.32119 20.9967L11.4171 12.3449L11.8582 11.5971L11.4061 10.8558C10.8508 9.94522 10.5968 8.88268 10.6802 7.81937C10.7635 6.75607 11.1801 5.74614 11.8705 4.93325C12.5609 4.12036 13.4901 3.54591 14.5258 3.2916C15.5616 3.0373 16.6512 3.11609 17.6396 3.51677C18.628 3.91746 19.4649 4.61962 20.0313 5.5234C20.5976 6.42717 20.8646 7.48653 20.7942 8.55077C20.7239 9.61502 20.3197 10.63 19.6393 11.4512C18.9588 12.2725 18.0367 12.8583 17.0042 13.1252V13.1252Z" fill="#C4C4C4"/>
<path d="M16.6171 8.73589C17.3916 8.53553 17.8572 7.74513 17.6569 6.97049C17.4566 6.19585 16.6663 5.73031 15.8917 5.93067C15.1172 6.13103 14.6516 6.92143 14.8519 7.69607C15.0522 8.47071 15.8425 8.93625 16.6171 8.73589Z" fill="#C4C4C4"/>
</svg>
