<svg width="118" height="39" viewBox="0 0 118 39" fill="none" xmlns="http://www.w3.org/2000/svg">
<rect x="0.952148" y="0.242188" width="116.275" height="38.5387" rx="5" fill="#03A9F4"/>
<path d="M43.5417 13.5616C42.8457 13.8701 42.0979 14.0785 41.3118 14.1728C42.1229 13.6873 42.7297 12.9233 43.0191 12.0233C42.257 12.476 41.4229 12.7947 40.5532 12.9655C39.9683 12.3409 39.1936 11.9269 38.3493 11.7878C37.5051 11.6487 36.6385 11.7922 35.8842 12.1961C35.1299 12.6 34.53 13.2417 34.1777 14.0216C33.8254 14.8014 33.7403 15.6758 33.9358 16.5089C32.3916 16.4314 30.8811 16.03 29.5021 15.3308C28.1231 14.6315 26.9065 13.6501 25.9313 12.4502C25.5978 13.0255 25.4061 13.6925 25.4061 14.4029C25.4057 15.0424 25.5631 15.6721 25.8645 16.2361C26.1658 16.8001 26.6016 17.281 27.1334 17.6362C26.5167 17.6166 25.9136 17.4499 25.3744 17.1501V17.2001C25.3743 18.097 25.6845 18.9663 26.2524 19.6605C26.8202 20.3547 27.6107 20.8311 28.4897 21.0087C27.9176 21.1636 27.3179 21.1864 26.7357 21.0754C26.9837 21.8472 27.4668 22.522 28.1173 23.0055C28.7679 23.489 29.5533 23.7569 30.3637 23.7718C28.988 24.8519 27.2891 25.4377 25.5403 25.4351C25.2305 25.4352 24.921 25.4171 24.6133 25.3809C26.3885 26.5225 28.4549 27.1284 30.5654 27.126C37.7097 27.126 41.6152 21.208 41.6152 16.0754C41.6152 15.9086 41.6111 15.7402 41.6036 15.5735C42.3632 15.024 43.019 14.3436 43.5401 13.5641L43.5417 13.5616Z" fill="white"/>
<path d="M47.4503 15.4663H50.169V23.0601H51.4815V15.4663H54.2045V14.3328H47.4503V15.4663ZM56.2638 23.0601H57.5593L58.8888 18.3342H58.9869L60.3164 23.0601H61.6161L63.538 16.5146H62.2212L60.9471 21.3001H60.8832L59.6048 16.5146H58.288L57.0011 21.3214H56.9371L55.6545 16.5146H54.3377L56.2638 23.0601ZM64.7472 23.0601H66.0213V16.5146H64.7472V23.0601ZM65.3906 15.5047C65.8295 15.5047 66.196 15.1638 66.196 14.7461C66.196 14.3285 65.8295 13.9834 65.3906 13.9834C64.9474 13.9834 64.5852 14.3285 64.5852 14.7461C64.5852 15.1638 64.9474 15.5047 65.3906 15.5047ZM70.7908 16.5146H69.4485V14.9464H68.1744V16.5146H67.2156V17.5373H68.1744V21.4024C68.1701 22.5913 69.0778 23.1666 70.0835 23.1453C70.4883 23.141 70.761 23.0643 70.9102 23.0089L70.68 21.9564C70.5948 21.9734 70.4371 22.0118 70.2326 22.0118C69.8192 22.0118 69.4485 21.8754 69.4485 21.1382V17.5373H70.7908V16.5146ZM75.2557 16.5146H73.9134V14.9464H72.6392V16.5146H71.6804V17.5373H72.6392V21.4024C72.6349 22.5913 73.5426 23.1666 74.5483 23.1453C74.9531 23.141 75.2259 23.0643 75.375 23.0089L75.1449 21.9564C75.0597 21.9734 74.902 22.0118 74.6974 22.0118C74.2841 22.0118 73.9134 21.8754 73.9134 21.1382V17.5373H75.2557V16.5146ZM79.4158 23.1922C80.8434 23.1922 81.8533 22.489 82.1431 21.4237L80.9371 21.2064C80.707 21.8243 80.1531 22.1396 79.4286 22.1396C78.3377 22.1396 77.6048 21.4322 77.5707 20.1709H82.2241V19.7191C82.2241 17.3541 80.8093 16.4294 79.3263 16.4294C77.5025 16.4294 76.3008 17.8186 76.3008 19.8299C76.3008 21.8626 77.4854 23.1922 79.4158 23.1922ZM77.5749 19.2163C77.6261 18.2873 78.2994 17.4819 79.3349 17.4819C80.3235 17.4819 80.9712 18.2149 80.9755 19.2163H77.5749ZM83.6378 23.0601H84.9119V19.0629C84.9119 18.2064 85.5724 17.5885 86.4759 17.5885C86.7401 17.5885 87.0384 17.6353 87.1406 17.6652V16.4464C87.0128 16.4294 86.7614 16.4166 86.5994 16.4166C85.8324 16.4166 85.1761 16.8513 84.9375 17.5544H84.8693V16.5146H83.6378V23.0601Z" fill="white"/>
</svg>
