<svg width="25" height="25" viewBox="0 0 25 25" fill="none" xmlns="http://www.w3.org/2000/svg">
<path d="M16.8626 9.46004C16.8626 10.6704 16.3818 11.8312 15.5261 12.6871C14.6703 13.543 13.5097 14.0238 12.2994 14.0238C11.0892 14.0238 9.92858 13.543 9.07283 12.6871C8.21708 11.8312 7.73633 10.6704 7.73633 9.46004C7.73633 8.24964 8.21708 7.08882 9.07283 6.23295C9.92858 5.37707 11.0892 4.89624 12.2994 4.89624C13.5097 4.89624 14.6703 5.37707 15.5261 6.23295C16.3818 7.08882 16.8626 8.24964 16.8626 9.46004V9.46004Z" fill="#C4C4C4"/>
<path fill-rule="evenodd" clip-rule="evenodd" d="M0.130859 12.5026C0.130859 9.27492 1.41287 6.17941 3.69487 3.89707C5.97687 1.61473 9.07193 0.33252 12.2992 0.33252C15.5264 0.33252 18.6215 1.61473 20.9035 3.89707C23.1855 6.17941 24.4675 9.27492 24.4675 12.5026C24.4675 15.7304 23.1855 18.8259 20.9035 21.1082C18.6215 23.3906 15.5264 24.6728 12.2992 24.6728C9.07193 24.6728 5.97687 23.3906 3.69487 21.1082C1.41287 18.8259 0.130859 15.7304 0.130859 12.5026V12.5026ZM12.2992 1.85378C10.2941 1.85389 8.32981 2.42025 6.63239 3.48767C4.93496 4.55508 3.5734 6.08018 2.7044 7.88742C1.8354 9.69465 1.4943 11.7106 1.72034 13.7032C1.94639 15.6957 2.73039 17.584 3.98213 19.1506C5.06206 17.4102 7.43945 15.5452 12.2992 15.5452C17.1589 15.5452 19.5347 17.4087 20.6162 19.1506C21.8679 17.584 22.6519 15.6957 22.878 13.7032C23.104 11.7106 22.7629 9.69465 21.8939 7.88742C21.0249 6.08018 19.6634 4.55508 17.9659 3.48767C16.2685 2.42025 14.3042 1.85389 12.2992 1.85378V1.85378Z" fill="#C4C4C4"/>
</svg>
