<svg width="25" height="24" viewBox="0 0 25 24" fill="none" xmlns="http://www.w3.org/2000/svg">
<path d="M17.5005 0C18.1636 0 18.7995 0.252856 19.2683 0.702944C19.7372 1.15303 20.0006 1.76348 20.0006 2.4H2.50007V15.8124C1.83701 15.8124 1.20111 15.5595 0.732254 15.1095C0.263399 14.6594 0 14.0489 0 13.4124V2.4C0 1.76348 0.263399 1.15303 0.732254 0.702944C1.20111 0.252856 1.83701 0 2.50007 0H17.5005Z" fill="#949494"/>
<path d="M14.9998 24.0001L11.6659 20.6125H7.49958C6.83652 20.6125 6.20062 20.3596 5.73177 19.9095C5.26291 19.4594 4.99951 18.849 4.99951 18.2125V7.20005C4.99951 6.56353 5.26291 5.95308 5.73177 5.50299C6.20062 5.05291 6.83652 4.80005 7.49958 4.80005H22.5C23.1631 4.80005 23.799 5.05291 24.2678 5.50299C24.7367 5.95308 25.0001 6.56353 25.0001 7.20005V18.2125C25.0001 18.849 24.7367 19.4594 24.2678 19.9095C23.799 20.3596 23.1631 20.6125 22.5 20.6125H18.3336L14.9998 24.0001ZM17.2561 18.2125H22.5V7.20005H7.49958V18.2125H12.7435L14.9998 20.5045L17.2561 18.2125Z" fill="#949494"/>
<path d="M13.9746 14.2498C13.9746 13.8168 14.0283 13.4718 14.1357 13.2146C14.2432 12.9574 14.4548 12.6759 14.7705 12.3699C15.0895 12.0606 15.2913 11.8409 15.376 11.7107C15.5062 11.5121 15.5713 11.2973 15.5713 11.0662C15.5713 10.7602 15.4948 10.5274 15.3418 10.3679C15.1921 10.2052 14.9707 10.1238 14.6777 10.1238C14.3978 10.1238 14.1715 10.2035 13.999 10.363C13.8298 10.5193 13.7451 10.7325 13.7451 11.0027H12.5586C12.5651 10.4265 12.7604 9.97078 13.1445 9.6355C13.5319 9.30021 14.043 9.13257 14.6777 9.13257C15.332 9.13257 15.8415 9.29858 16.2061 9.63062C16.5739 9.96265 16.7578 10.4265 16.7578 11.0222C16.7578 11.5528 16.5104 12.0753 16.0156 12.5896L15.415 13.1804C15.2002 13.4246 15.0895 13.781 15.083 14.2498H13.9746ZM13.8916 15.7683C13.8916 15.5763 13.9518 15.4216 14.0723 15.3044C14.1927 15.184 14.3555 15.1238 14.5605 15.1238C14.7689 15.1238 14.9333 15.1856 15.0537 15.3093C15.1742 15.4298 15.2344 15.5828 15.2344 15.7683C15.2344 15.9473 15.1758 16.0971 15.0586 16.2175C14.9414 16.338 14.7754 16.3982 14.5605 16.3982C14.3457 16.3982 14.1797 16.338 14.0625 16.2175C13.9486 16.0971 13.8916 15.9473 13.8916 15.7683Z" fill="#949494"/>
</svg>
