<svg width="9" height="9" viewBox="0 0 9 9" fill="none" xmlns="http://www.w3.org/2000/svg">
<path d="M6.105 4.01964C6.13119 4.04577 6.15197 4.0768 6.16615 4.11097C6.18033 4.14514 6.18763 4.18177 6.18763 4.21876C6.18763 4.25576 6.18033 4.29239 6.16615 4.32656C6.15197 4.36073 6.13119 4.39176 6.105 4.41789L4.4175 6.10539C4.39137 6.13158 4.36034 6.15236 4.32617 6.16654C4.292 6.18072 4.25537 6.18802 4.21837 6.18802C4.18138 6.18802 4.14475 6.18072 4.11058 6.16654C4.07641 6.15236 4.04537 6.13158 4.01925 6.10539L3.1755 5.26164C3.14935 5.23549 3.12861 5.20445 3.11445 5.17028C3.1003 5.13611 3.09302 5.0995 3.09302 5.06251C3.09302 5.02553 3.1003 4.98891 3.11445 4.95475C3.12861 4.92058 3.14935 4.88954 3.1755 4.86339C3.22831 4.81058 3.29994 4.78091 3.37462 4.78091C3.4116 4.78091 3.44822 4.78819 3.48239 4.80234C3.51655 4.8165 3.5476 4.83724 3.57375 4.86339L4.21837 5.50858L5.70675 4.01964C5.73287 3.99345 5.76391 3.97267 5.79808 3.95849C5.83225 3.94431 5.86888 3.93701 5.90587 3.93701C5.94287 3.93701 5.9795 3.94431 6.01367 3.95849C6.04784 3.97267 6.07887 3.99345 6.105 4.01964Z" fill="#949494"/>
<path d="M1.96875 0C2.04334 0 2.11488 0.0296316 2.16762 0.0823762C2.22037 0.135121 2.25 0.206658 2.25 0.28125V0.5625H6.75V0.28125C6.75 0.206658 6.77963 0.135121 6.83238 0.0823762C6.88512 0.0296316 6.95666 0 7.03125 0C7.10584 0 7.17738 0.0296316 7.23012 0.0823762C7.28287 0.135121 7.3125 0.206658 7.3125 0.28125V0.5625H7.875C8.17337 0.5625 8.45952 0.681026 8.6705 0.892005C8.88147 1.10298 9 1.38913 9 1.6875V7.875C9 8.17337 8.88147 8.45952 8.6705 8.6705C8.45952 8.88147 8.17337 9 7.875 9H1.125C0.826631 9 0.540483 8.88147 0.329505 8.6705C0.118526 8.45952 0 8.17337 0 7.875V1.6875C0 1.38913 0.118526 1.10298 0.329505 0.892005C0.540483 0.681026 0.826631 0.5625 1.125 0.5625H1.6875V0.28125C1.6875 0.206658 1.71713 0.135121 1.76988 0.0823762C1.82262 0.0296316 1.89416 0 1.96875 0V0ZM0.5625 2.25V7.875C0.5625 8.02418 0.621763 8.16726 0.727252 8.27275C0.832742 8.37824 0.975816 8.4375 1.125 8.4375H7.875C8.02418 8.4375 8.16726 8.37824 8.27275 8.27275C8.37824 8.16726 8.4375 8.02418 8.4375 7.875V2.25H0.5625Z" fill="#949494"/>
</svg>
