<svg width="46" height="28" viewBox="0 0 46 28" fill="none" xmlns="http://www.w3.org/2000/svg">
<path d="M12.2667 0C7.2036 0 3.06667 4.13693 3.06667 9.2C3.06853 10.6488 3.41253 12.0767 4.07067 13.3674C4.72881 14.6581 5.68247 15.7751 6.854 16.6275C2.806 18.6361 0 22.7915 0 27.6H3.06667C3.06667 22.5001 7.1668 18.4 12.2667 18.4C17.3665 18.4 21.4667 22.5001 21.4667 27.6H24.5333C24.5333 22.5001 28.6335 18.4 33.7333 18.4C38.8332 18.4 42.9333 22.5001 42.9333 27.6H46C46 22.7915 43.194 18.6361 39.146 16.6275C40.3177 15.7753 41.2715 14.6583 41.9297 13.3675C42.5878 12.0768 42.9317 10.6488 42.9333 9.2C42.9333 4.13693 38.7964 0 33.7333 0C28.6703 0 24.5333 4.13693 24.5333 9.2C24.5352 10.6488 24.8792 12.0767 25.5373 13.3674C26.1955 14.6581 27.1491 15.7751 28.3207 16.6275C26.0792 17.7271 24.224 19.4807 23 21.6568C21.776 19.4807 19.9208 17.7271 17.6793 16.6275C18.851 15.7753 19.8048 14.6583 20.463 13.3675C21.1212 12.0768 21.465 10.6488 21.4667 9.2C21.4667 4.13693 17.3297 0 12.2667 0ZM12.2667 3.06667C15.6707 3.06667 18.4 5.796 18.4 9.2C18.4 12.604 15.6707 15.3333 12.2667 15.3333C8.86267 15.3333 6.13333 12.604 6.13333 9.2C6.13333 5.796 8.86267 3.06667 12.2667 3.06667ZM33.7333 3.06667C37.1373 3.06667 39.8667 5.796 39.8667 9.2C39.8667 12.604 37.1373 15.3333 33.7333 15.3333C30.3293 15.3333 27.6 12.604 27.6 9.2C27.6 5.796 30.3293 3.06667 33.7333 3.06667Z" fill="#5191FA"/>
</svg>
