<svg width="40" height="40" viewBox="0 0 40 40" fill="none" xmlns="http://www.w3.org/2000/svg">
<path d="M0 0V30H10V40H40V10H30V0H0ZM3.33333 3.33333H26.6667V10.9383L10.9367 26.6667H3.33333V3.33333ZM11.6667 6.66667V8.33333H6.66667V11.6667H14.8967C14.68 13.58 14.095 15.0917 13.125 16.1467C12.5984 15.9764 12.092 15.7489 11.615 15.4683C10.4433 14.7717 10 14.03 10 13.3333H6.66667C6.66667 15.3183 7.89 16.9733 9.53167 18.0733C8.58836 18.2597 7.62812 18.3469 6.66667 18.3333V21.6667C9.62167 21.6667 12.0833 20.99 13.9583 19.74C14.83 19.89 15.7167 20 16.6667 20V16.875C17.5717 15.3583 18.0533 13.5867 18.23 11.6667H20V8.33333H15V6.66667H11.6667ZM29.0633 13.3333H36.6667V36.6667H13.3333V29.0617L29.0633 13.3333ZM26.6667 16.4067L25.1033 21.1467L21.77 31.1467L21.6667 31.4067V33.3333H25V31.875L25.0517 31.6667H28.2817L28.3333 31.875V33.3333H31.6667V31.4067L31.5617 31.145L28.2283 21.145L26.6667 16.4067ZM26.6667 26.875L27.135 28.3333H26.1983L26.6667 26.875Z" fill="#5191FA"/>
</svg>
