<svg width="21" height="21" viewBox="0 0 21 21" fill="none" xmlns="http://www.w3.org/2000/svg">
<path d="M10.415 5.23331C9.89586 5.23331 9.38835 5.38726 8.95667 5.6757C8.52499 5.96414 8.18854 6.37411 7.98986 6.85376C7.79118 7.33342 7.73919 7.86122 7.84048 8.37042C7.94176 8.87962 8.19177 9.34735 8.55888 9.71446C8.926 10.0816 9.39373 10.3316 9.90293 10.4329C10.4121 10.5342 10.9399 10.4822 11.4196 10.2835C11.8992 10.0848 12.3092 9.74836 12.5976 9.31668C12.8861 8.885 13.04 8.37748 13.04 7.85831C13.0392 7.16236 12.7624 6.49514 12.2703 6.00303C11.7782 5.51092 11.111 5.2341 10.415 5.23331ZM10.415 9.17081C10.1555 9.17081 9.90169 9.09383 9.68585 8.94961C9.47001 8.80539 9.30179 8.60041 9.20245 8.36058C9.10311 8.12075 9.07712 7.85685 9.12776 7.60225C9.1784 7.34765 9.30341 7.11379 9.48696 6.93023C9.67052 6.74667 9.90438 6.62167 10.159 6.57103C10.4136 6.52038 10.6775 6.54638 10.9173 6.64572C11.1571 6.74506 11.3621 6.91328 11.5063 7.12912C11.6506 7.34496 11.7275 7.59872 11.7275 7.85831C11.7271 8.20628 11.5887 8.53989 11.3427 8.78594C11.0966 9.032 10.763 9.17041 10.415 9.17081Z" fill="#1A2B48"/>
<path d="M15.4593 2.81016C14.2121 1.5633 12.5473 0.82262 10.7861 0.731063C9.02495 0.639505 7.29229 1.20356 5.92255 2.31438C4.55281 3.42519 3.64308 5.00401 3.36895 6.74612C3.09483 8.48823 3.47573 10.2701 4.43814 11.7479L9.39722 19.361C9.50757 19.5304 9.65846 19.6695 9.83621 19.7659C10.014 19.8622 10.2129 19.9127 10.4151 19.9127C10.6173 19.9127 10.8163 19.8622 10.994 19.7659C11.1718 19.6695 11.3227 19.5304 11.433 19.361L16.3923 11.7479C17.2853 10.3771 17.6799 8.74089 17.5101 7.11366C17.3402 5.48643 16.6162 3.96704 15.4593 2.81016ZM15.2926 11.0315L10.4151 18.5189L5.53769 11.0315C4.04472 8.73959 4.36493 5.67244 6.29906 3.73822C6.83959 3.19768 7.48129 2.7689 8.18753 2.47636C8.89377 2.18382 9.65071 2.03325 10.4151 2.03325C11.1796 2.03325 11.9365 2.18382 12.6428 2.47636C13.349 2.7689 13.9907 3.19768 14.5312 3.73822C16.4654 5.67244 16.7855 8.73959 15.2926 11.0315Z" fill="#1A2B48"/>
</svg>
