<svg width="204" height="88" viewBox="0 0 204 88" fill="none" xmlns="http://www.w3.org/2000/svg">
<g filter="url(#filter0_d)">
<rect x="24" y="24" width="156" height="40" rx="7" fill="#5191FA"/>
<path d="M42.2 37.4H40V52.8C40 54.01 40.99 55 42.2 55H57.6V52.8H42.2V37.4ZM59.8 33H46.6C45.39 33 44.4 33.99 44.4 35.2V48.4C44.4 49.61 45.39 50.6 46.6 50.6H59.8C61.01 50.6 62 49.61 62 48.4V35.2C62 33.99 61.01 33 59.8 33ZM58.7 42.9H54.3V47.3H52.1V42.9H47.7V40.7H52.1V36.3H54.3V40.7H58.7V42.9Z" fill="white"/>
</g>
<defs>
<filter id="filter0_d" x="0" y="0" width="204" height="88" filterUnits="userSpaceOnUse" color-interpolation-filters="sRGB">
<feFlood flood-opacity="0" result="BackgroundImageFix"/>
<feColorMatrix in="SourceAlpha" type="matrix" values="0 0 0 0 0 0 0 0 0 0 0 0 0 0 0 0 0 0 127 0" result="hardAlpha"/>
<feOffset/>
<feGaussianBlur stdDeviation="12"/>
<feComposite in2="hardAlpha" operator="out"/>
<feColorMatrix type="matrix" values="0 0 0 0 0.317647 0 0 0 0 0.568627 0 0 0 0 0.980392 0 0 0 1 0"/>
<feBlend mode="normal" in2="BackgroundImageFix" result="effect1_dropShadow"/>
<feBlend mode="normal" in="SourceGraphic" in2="effect1_dropShadow" result="shape"/>
</filter>
</defs>
</svg>
