<svg width="150" height="150" viewBox="0 0 150 150" fill="none" xmlns="http://www.w3.org/2000/svg">
<g filter="url(#filter0_d)">
<circle cx="75" cy="75" r="19" fill="#5191FA"/>
<path d="M68.9582 66.056H72.6146C72.8152 66.0561 73.0082 66.1323 73.1548 66.2692C73.3014 66.4061 73.3905 66.5936 73.4041 66.7937C73.4178 66.9938 73.355 67.1917 73.2284 67.3472C73.1019 67.5028 72.9209 67.6046 72.7222 67.6319L72.6146 67.6393H68.9582C68.3564 67.6392 67.7771 67.8676 67.3372 68.2783C66.8973 68.689 66.6298 69.2513 66.5886 69.8517L66.5833 70.0143V80.0418C66.5832 80.6436 66.8116 81.2229 67.2223 81.6628C67.633 82.1027 68.1953 82.3702 68.7957 82.4114L68.9582 82.4167H78.9857C79.5875 82.4168 80.1669 82.1884 80.6068 81.7777C81.0467 81.367 81.3142 80.8047 81.3554 80.2043L81.3607 80.0418V79.5161C81.3589 79.3142 81.4344 79.1193 81.5716 78.9712C81.7088 78.8231 81.8975 78.733 82.0989 78.7194C82.3004 78.7057 82.4994 78.7696 82.6553 78.8979C82.8112 79.0262 82.9122 79.2092 82.9376 79.4095L82.944 79.5161V80.0418C82.9441 81.0551 82.5555 82.0298 81.8584 82.7652C81.1613 83.5006 80.2087 83.9407 79.1969 83.9947L78.9857 84H68.9582C67.9449 84.0001 66.9702 83.6116 66.2348 82.9145C65.4994 82.2173 65.0593 81.2647 65.0053 80.2529L65 80.0418V70.0143C64.9999 69.0009 65.3884 68.0262 66.0855 67.2908C66.7827 66.5554 67.7353 66.1153 68.7471 66.0613L68.9582 66.056H72.6146H68.9582ZM77.1417 68.716V65.7921C77.1417 65.6465 77.1817 65.5037 77.2576 65.3794C77.3334 65.2551 77.442 65.1541 77.5715 65.0875C77.7011 65.021 77.8464 64.9914 77.9916 65.0021C78.1369 65.0129 78.2763 65.0634 78.3947 65.1483L78.4812 65.2211L84.808 71.2904C85.1036 71.5733 85.131 72.0293 84.8893 72.3427L84.808 72.4325L78.4812 78.5039C78.3762 78.6048 78.2454 78.6747 78.1032 78.7061C77.961 78.7375 77.813 78.729 77.6753 78.6816C77.5376 78.6343 77.4156 78.5499 77.3228 78.4377C77.2299 78.3255 77.1699 78.1899 77.1491 78.0458L77.1417 77.9328V75.0565L76.7786 75.0882C74.2454 75.3521 71.8177 76.492 69.4807 78.5292C68.9318 79.0074 68.0843 78.5556 68.175 77.8347C68.8759 72.2193 71.8124 69.1244 76.8251 68.736L77.1417 68.7149V65.7921V68.716ZM78.725 67.6488V69.4865C78.725 69.6964 78.6416 69.8978 78.4932 70.0463C78.3447 70.1947 78.1433 70.2781 77.9334 70.2781C73.8443 70.2781 71.311 72.0472 70.2154 75.7215L70.132 76.016L70.5035 75.7658C72.8669 74.2226 75.3452 73.4447 77.9344 73.4447C78.1257 73.4447 78.3106 73.514 78.4547 73.6397C78.5989 73.7655 78.6927 73.9392 78.7187 74.1287L78.7261 74.2364V76.0761L83.116 71.8614L78.725 67.6488Z" fill="white"/>
</g>
<defs>
<filter id="filter0_d" x="0" y="0" width="150" height="150" filterUnits="userSpaceOnUse" color-interpolation-filters="sRGB">
<feFlood flood-opacity="0" result="BackgroundImageFix"/>
<feColorMatrix in="SourceAlpha" type="matrix" values="0 0 0 0 0 0 0 0 0 0 0 0 0 0 0 0 0 0 127 0" result="hardAlpha"/>
<feOffset/>
<feGaussianBlur stdDeviation="28"/>
<feComposite in2="hardAlpha" operator="out"/>
<feColorMatrix type="matrix" values="0 0 0 0 0.317647 0 0 0 0 0.568627 0 0 0 0 0.980392 0 0 0 1 0"/>
<feBlend mode="normal" in2="BackgroundImageFix" result="effect1_dropShadow"/>
<feBlend mode="normal" in="SourceGraphic" in2="effect1_dropShadow" result="shape"/>
</filter>
</defs>
</svg>
