<svg width="15" height="13" viewBox="0 0 15 13" fill="none" xmlns="http://www.w3.org/2000/svg">
<path d="M6.53394 0.411432C6.76435 -0.137144 7.6363 -0.137144 7.86743 0.411432L9.35789 4.13837C9.46229 4.38536 9.72798 4.5498 10.0246 4.5498H13.6874C14.3642 4.5498 14.6595 5.31026 14.1274 5.6827L11.5209 7.79965C11.4041 7.88068 11.3188 7.993 11.2771 8.12052C11.2355 8.24803 11.2396 8.38418 11.289 8.50942L12.2409 12.1512C12.4727 12.7362 11.7225 13.2386 11.1551 12.8785L7.6147 10.8506C7.49346 10.7737 7.34888 10.7324 7.20069 10.7324C7.05249 10.7324 6.90791 10.7737 6.78667 10.8506L3.24629 12.8785C2.67963 13.2386 1.92864 12.7355 2.16049 12.1512L3.11237 8.50942C3.16175 8.38418 3.16591 8.24803 3.12425 8.12052C3.0826 7.993 2.99728 7.88068 2.88052 7.79965L0.274017 5.6827C-0.258803 5.31026 0.0378481 4.5498 0.713234 4.5498H4.37602C4.52023 4.55023 4.66119 4.51113 4.78025 4.43766C4.89931 4.36419 4.99085 4.25982 5.04276 4.13837L6.53322 0.411432H6.53394Z" fill="#FFDC00"/>
</svg>
