<svg width="36" height="40" viewBox="0 0 36 40" fill="none" xmlns="http://www.w3.org/2000/svg">
<path d="M0.981754 32.0558H11.781V34.5102C11.781 35.9422 11.2122 37.3157 10.1995 38.3283C9.1869 39.3409 7.81348 39.9098 6.3814 39.9098C4.94933 39.9098 3.5759 39.3409 2.56327 38.3283C1.55064 37.3157 0.981754 35.9422 0.981754 34.5102V32.0558ZM8.94967 24.2017L9.03803 23.9426C10.544 19.8074 10.7993 19.0377 10.7993 18.3112C10.7993 16.8386 10.4007 15.0852 9.76256 13.8482C9.28739 12.9253 8.9536 12.6563 8.83579 12.6563C6.3225 12.6563 3.92702 15.3345 3.92702 18.3112C3.92702 20.1942 4.07428 21.7925 4.37273 23.7266L4.44735 24.2017H8.94967ZM8.83579 8.72929C12.7628 8.72929 14.7263 14.3842 14.7263 18.3112C14.7263 20.2747 13.7446 22.2382 12.7628 25.1835L11.781 28.1288H0.981754C0.981754 26.1652 0 23.22 0 18.3112C0 13.4024 3.92309 8.72929 8.83579 8.72929ZM32.5039 24.3942L32.0778 26.8112C31.8292 28.2217 31.0304 29.4756 29.8572 30.2971C28.684 31.1187 27.2326 31.4405 25.8221 31.1918C24.4116 30.9432 23.1577 30.1444 22.3362 28.9712C21.5147 27.798 21.1929 26.3466 21.4415 24.9361L21.8696 22.521L32.5039 24.3942ZM30.4422 16.0571C30.7662 15.0754 31.0332 14.2998 31.0372 14.2899C31.4338 12.998 31.746 11.7315 31.9895 10.3472C32.5059 7.41767 30.6111 4.36441 28.1371 3.92655C28.0212 3.90692 27.6462 4.11308 27.0179 4.93776C26.1736 6.04714 25.4785 7.7063 25.2213 9.15341C25.1074 9.80137 25.1251 9.94863 25.7514 13.5968C25.8398 14.0995 25.9124 14.5511 25.9792 15.0047L26.0184 15.2756L30.4442 16.0571H30.4422ZM28.8204 0.0604022C33.6585 0.912565 36.7098 6.1944 35.8576 11.0286C35.0054 15.8647 33.5269 18.594 33.1872 20.528L22.5509 18.6529L22.0954 15.5819C21.6398 12.511 21.0154 10.4061 21.3551 8.47404C22.0365 4.60592 24.9523 -0.620935 28.8204 0.0604022Z" fill="#5191FA"/>
</svg>
