<svg width="204" height="88" viewBox="0 0 204 88" fill="none" xmlns="http://www.w3.org/2000/svg">
<g filter="url(#filter0_d)">
<rect x="24" y="24" width="156" height="40" rx="7" fill="#5191FA"/>
<path d="M38.3337 39.6667H36.167V52.6667C36.167 53.8617 37.1387 54.8334 38.3337 54.8334H51.3337V52.6667H38.3337V39.6667Z" fill="white"/>
<path d="M55.6667 33.1667H42.6667C42.092 33.1667 41.5409 33.395 41.1346 33.8013C40.7283 34.2077 40.5 34.7588 40.5 35.3334V48.3334C40.5 48.9081 40.7283 49.4592 41.1346 49.8655C41.5409 50.2718 42.092 50.5001 42.6667 50.5001H55.6667C56.2413 50.5001 56.7924 50.2718 57.1987 49.8655C57.6051 49.4592 57.8333 48.9081 57.8333 48.3334V35.3334C57.8333 34.7588 57.6051 34.2077 57.1987 33.8013C56.7924 33.395 56.2413 33.1667 55.6667 33.1667ZM45.9167 46.1667V37.5001L53.5 41.8334L45.9167 46.1667Z" fill="white"/>
</g>
<defs>
<filter id="filter0_d" x="0" y="0" width="204" height="88" filterUnits="userSpaceOnUse" color-interpolation-filters="sRGB">
<feFlood flood-opacity="0" result="BackgroundImageFix"/>
<feColorMatrix in="SourceAlpha" type="matrix" values="0 0 0 0 0 0 0 0 0 0 0 0 0 0 0 0 0 0 127 0" result="hardAlpha"/>
<feOffset/>
<feGaussianBlur stdDeviation="12"/>
<feComposite in2="hardAlpha" operator="out"/>
<feColorMatrix type="matrix" values="0 0 0 0 0.317647 0 0 0 0 0.568627 0 0 0 0 0.980392 0 0 0 1 0"/>
<feBlend mode="normal" in2="BackgroundImageFix" result="effect1_dropShadow"/>
<feBlend mode="normal" in="SourceGraphic" in2="effect1_dropShadow" result="shape"/>
</filter>
</defs>
</svg>
