<svg width="92" height="92" viewBox="0 0 92 92" fill="none" xmlns="http://www.w3.org/2000/svg">
<circle cx="46" cy="46" r="46" fill="#5191FA" fill-opacity="0.21"/>
<path d="M49.7672 45.9996L61.2 34.5869H61.2003L72.6338 23.1731C73.3786 22.4295 73.8857 21.4821 74.0911 20.4508C74.2966 19.4195 74.191 18.3505 73.7879 17.3791C73.3848 16.4076 72.7022 15.5773 71.8264 14.993C70.9506 14.4088 69.9209 14.0968 68.8675 14.0967H23.1329C22.0794 14.0968 21.0497 14.4087 20.1738 14.9929C19.2979 15.5772 18.6152 16.4076 18.2121 17.3791C17.809 18.3507 17.7035 19.4197 17.909 20.4511C18.1145 21.4825 18.6217 22.4299 19.3666 23.1735L42.2332 46.0002L19.3666 68.8263C18.6217 69.57 18.1145 70.5173 17.909 71.5487C17.7035 72.5801 17.809 73.6491 18.2121 74.6207C18.6152 75.5922 19.2979 76.4226 20.1738 77.0069C21.0497 77.5911 22.0794 77.903 23.1329 77.9031H68.8672C69.9206 77.9031 70.9505 77.5913 71.8264 77.007C72.7023 76.4228 73.3851 75.5924 73.7882 74.6208C74.1914 73.6493 74.2969 72.5802 74.0914 71.5488C73.8859 70.5174 73.3787 69.57 72.6338 68.8263L49.7672 45.9996ZM68.8658 19.4155L60.8774 27.3897H31.125L23.1352 19.4139L68.8658 19.4155ZM23.1346 72.5843L43.3368 52.4181V59.2929C43.3368 59.998 43.6174 60.6742 44.1169 61.1728C44.6164 61.6714 45.2938 61.9515 46.0002 61.9515C46.7066 61.9515 47.384 61.6714 47.8835 61.1728C48.3829 60.6742 48.6636 59.998 48.6636 59.2929V52.4198L68.8652 72.5859L23.1346 72.5843Z" fill="#5191FA" fill-opacity="0.5"/>
</svg>
