<svg width="34" height="30" viewBox="0 0 34 30" fill="none" xmlns="http://www.w3.org/2000/svg">
<path d="M31.875 12.75C32.4616 12.75 32.9624 12.9575 33.3774 13.3726C33.7925 13.7876 34 14.2884 34 14.875C34 15.4616 33.7925 15.9624 33.3774 16.3774C32.9624 16.7925 32.4616 17 31.875 17H31.626L29.7168 27.9902C29.6283 28.4993 29.3848 28.9199 28.9863 29.252C28.5879 29.584 28.1341 29.75 27.625 29.75H6.375C5.86589 29.75 5.41211 29.584 5.01367 29.252C4.61523 28.9199 4.37174 28.4993 4.2832 27.9902L2.37402 17H2.125C1.53841 17 1.0376 16.7925 0.622559 16.3774C0.20752 15.9624 0 15.4616 0 14.875C0 14.2884 0.20752 13.7876 0.622559 13.3726C1.0376 12.9575 1.53841 12.75 2.125 12.75H31.875ZM8.05176 26.0312C8.33952 26.0091 8.58024 25.8846 8.77393 25.6577C8.96761 25.4308 9.05339 25.1735 9.03125 24.8857L8.5 17.9795C8.47786 17.6917 8.35335 17.451 8.12646 17.2573C7.89958 17.0636 7.64225 16.9779 7.35449 17C7.06673 17.0221 6.82601 17.1466 6.63232 17.3735C6.43864 17.6004 6.35286 17.8577 6.375 18.1455L6.90625 25.0518C6.92839 25.3285 7.04183 25.5609 7.24658 25.749C7.45133 25.9372 7.69206 26.0312 7.96875 26.0312H8.05176ZM14.875 24.9688V18.0625C14.875 17.7747 14.7699 17.5257 14.5596 17.3154C14.3493 17.1051 14.1003 17 13.8125 17C13.5247 17 13.2757 17.1051 13.0654 17.3154C12.8551 17.5257 12.75 17.7747 12.75 18.0625V24.9688C12.75 25.2565 12.8551 25.5055 13.0654 25.7158C13.2757 25.9261 13.5247 26.0312 13.8125 26.0312C14.1003 26.0312 14.3493 25.9261 14.5596 25.7158C14.7699 25.5055 14.875 25.2565 14.875 24.9688ZM21.25 24.9688V18.0625C21.25 17.7747 21.1449 17.5257 20.9346 17.3154C20.7243 17.1051 20.4753 17 20.1875 17C19.8997 17 19.6507 17.1051 19.4404 17.3154C19.2301 17.5257 19.125 17.7747 19.125 18.0625V24.9688C19.125 25.2565 19.2301 25.5055 19.4404 25.7158C19.6507 25.9261 19.8997 26.0312 20.1875 26.0312C20.4753 26.0312 20.7243 25.9261 20.9346 25.7158C21.1449 25.5055 21.25 25.2565 21.25 24.9688ZM27.0938 25.0518L27.625 18.1455C27.6471 17.8577 27.5614 17.6004 27.3677 17.3735C27.174 17.1466 26.9333 17.0221 26.6455 17C26.3577 16.9779 26.1004 17.0636 25.8735 17.2573C25.6466 17.451 25.5221 17.6917 25.5 17.9795L24.9688 24.8857C24.9466 25.1735 25.0324 25.4308 25.2261 25.6577C25.4198 25.8846 25.6605 26.0091 25.9482 26.0312H26.0312C26.3079 26.0312 26.5487 25.9372 26.7534 25.749C26.9582 25.5609 27.0716 25.3285 27.0938 25.0518ZM7.90234 4.84766L6.3584 11.6875H4.16699L5.84375 4.36621C6.05404 3.39225 6.54655 2.59814 7.32129 1.98389C8.09603 1.36963 8.98145 1.0625 9.97754 1.0625H12.75C12.75 0.77474 12.8551 0.525716 13.0654 0.31543C13.2757 0.105143 13.5247 0 13.8125 0H20.1875C20.4753 0 20.7243 0.105143 20.9346 0.31543C21.1449 0.525716 21.25 0.77474 21.25 1.0625H24.0225C25.0186 1.0625 25.904 1.36963 26.6787 1.98389C27.4535 2.59814 27.946 3.39225 28.1562 4.36621L29.833 11.6875H27.6416L26.0977 4.84766C25.9759 4.36068 25.7241 3.96224 25.3423 3.65234C24.9604 3.34245 24.5205 3.1875 24.0225 3.1875H21.25C21.25 3.47526 21.1449 3.72428 20.9346 3.93457C20.7243 4.14486 20.4753 4.25 20.1875 4.25H13.8125C13.5247 4.25 13.2757 4.14486 13.0654 3.93457C12.8551 3.72428 12.75 3.47526 12.75 3.1875H9.97754C9.47949 3.1875 9.03955 3.34245 8.65771 3.65234C8.27588 3.96224 8.02409 4.36068 7.90234 4.84766Z" fill="black"/>
</svg>
