<svg width="92" height="92" viewBox="0 0 92 92" fill="none" xmlns="http://www.w3.org/2000/svg">
<circle cx="46" cy="46" r="46" fill="#5191FA" fill-opacity="0.21"/>
<g clip-path="url(#clip0)">
<path d="M25.1352 69.2006C24.9137 68.9789 24.6063 68.8516 24.293 68.8516C23.9796 68.8516 23.6722 68.9789 23.4506 69.2006C23.229 69.4224 23.1016 69.7296 23.1016 70.043C23.1016 70.3563 23.2289 70.6637 23.4506 70.8852C23.6722 71.1068 23.9796 71.2344 24.293 71.2344C24.6063 71.2344 24.9137 71.1069 25.1352 70.8852C25.3568 70.6637 25.4844 70.3563 25.4844 70.043C25.4844 69.7296 25.3569 69.4222 25.1352 69.2006Z" fill="#5191FA"/>
<path d="M70.94 36.7954C70.7184 36.5737 70.4122 36.4463 70.0977 36.4463C69.7843 36.4463 69.4769 36.5737 69.2553 36.7954C69.0338 37.017 68.9062 37.3244 68.9062 37.6377C68.9062 37.951 69.0337 38.2584 69.2553 38.4799C69.4769 38.7015 69.7843 38.8291 70.0977 38.8291C70.4122 38.8291 70.7184 38.7016 70.94 38.4799C71.1626 38.2584 71.2901 37.951 71.2901 37.6377C71.2901 37.3244 71.1626 37.017 70.94 36.7954Z" fill="#5191FA"/>
<path d="M75.6514 15.349C75.4279 15.1256 75.1248 15 74.8088 15L45.5009 15.0015C44.843 15.0015 44.3096 15.5351 44.3096 16.193V19.6L33.0164 22.6261C32.3808 22.7964 32.0036 23.4497 32.1739 24.0852L38.027 45.9287L32.9636 50.992C32.3192 50.0511 31.2371 49.4322 30.0132 49.4322H18.5761C16.6052 49.4322 15.002 51.0356 15.002 53.0063V72.4258C15.002 74.3966 16.6052 76 18.5761 76H30.0133C31.6876 76 33.0961 74.8424 33.4821 73.286L34.8987 74.5213C35.9923 75.4749 37.3934 76.0001 38.8444 76.0001H74.809C75.4669 76.0001 76.0004 75.4666 76.0004 74.8087V16.1914C76.0002 15.8754 75.8748 15.5724 75.6514 15.349ZM31.2045 72.4259C31.2045 73.0827 30.67 73.6173 30.0131 73.6173H18.5759C17.919 73.6173 17.3845 73.0828 17.3845 72.4259V53.0065C17.3845 52.3495 17.919 51.815 18.5759 51.815H23.1032V65.5395C23.1032 66.1973 23.6367 66.7309 24.2946 66.7309C24.9525 66.7309 25.486 66.1973 25.486 65.5395V51.815H30.0132C30.6701 51.815 31.2046 52.3495 31.2046 53.0065V72.4259H31.2045ZM34.7838 24.6193L44.3096 22.0668V26.4816L43.5111 26.6956C43.2058 26.7774 42.9457 26.977 42.7877 27.2506C42.6297 27.5243 42.5868 27.8494 42.6687 28.1547C43.1265 29.8633 42.1089 31.6257 40.4003 32.0836C40.0948 32.1655 39.8342 32.3655 39.6763 32.6397C39.5185 32.9139 39.4759 33.2396 39.5585 33.5451L44.2025 50.7416H41.8113L40.5791 45.9207C40.5399 45.7672 40.4712 45.6258 40.3794 45.5029L34.7838 24.6193ZM44.3096 31.9453V41.9985L42.1366 33.9523C43.0443 33.4836 43.7872 32.7823 44.3096 31.9453ZM61.4258 73.6172H38.8441C37.969 73.6172 37.124 73.3005 36.4644 72.7254L33.5873 70.2162V53.7382L38.7887 48.5368L39.7321 52.2278C39.867 52.7552 40.342 53.124 40.8863 53.124L64.3098 53.1255C65.2296 53.1255 65.9778 53.8737 65.9778 54.7934C65.9778 55.7132 65.2296 56.4614 64.3098 56.4614H52.3076C51.6497 56.4614 51.1162 56.9949 51.1162 57.6528C51.1162 58.3107 51.6497 58.8442 52.3076 58.8442H68.039C68.9587 58.8442 69.7069 59.5924 69.7069 60.5122C69.7069 61.432 68.9587 62.1802 68.039 62.1802H52.3076C51.6497 62.1802 51.1162 62.7137 51.1162 63.3716C51.1162 64.0295 51.6497 64.563 52.3076 64.563H65.4897C66.4095 64.563 67.1577 65.3112 67.1577 66.2309C67.1577 67.1507 66.4095 67.8989 65.4897 67.8989H52.3076C51.6497 67.8989 51.1162 68.4324 51.1162 69.0903C51.1162 69.7482 51.6497 70.2817 52.3076 70.2817H61.4258C62.3456 70.2817 63.0938 71.0299 63.0938 71.9497C63.0937 72.869 62.3455 73.6172 61.4258 73.6172ZM73.6176 73.6172H73.6175H65.1157C65.3467 73.1081 65.4765 72.5437 65.4765 71.9492C65.4765 71.3547 65.3467 70.7903 65.1157 70.2812H65.4897C67.7232 70.2812 69.5404 68.4641 69.5404 66.2306C69.5404 65.5791 69.3849 64.9635 69.1104 64.4176C70.8255 63.9465 72.0895 62.3745 72.0895 60.512C72.0895 59.6084 71.7919 58.7731 71.2899 58.0988V42.9989C71.2899 42.341 70.7564 41.8075 70.0985 41.8075C69.4406 41.8075 68.9071 42.341 68.9071 42.9989V56.5561C68.6271 56.4948 68.3368 56.4614 68.0387 56.4614H67.9996C68.2306 55.9523 68.3604 55.388 68.3604 54.7934C68.3604 52.5598 66.5433 50.7428 64.3097 50.7428H62.3945C64.4282 49.8707 65.8564 47.8493 65.8564 45.5C65.8564 42.356 63.2987 39.7982 60.1547 39.7982C57.0108 39.7982 54.453 42.356 54.453 45.5C54.453 47.8493 55.8814 49.8707 57.9149 50.7428H51.4023V28.0891C53.5306 27.6253 55.21 25.946 55.6737 23.8176H64.6356C65.0993 25.946 66.7787 27.6253 68.907 28.0891V31.7932C68.907 32.4511 69.4405 32.9846 70.0984 32.9846C70.7563 32.9846 71.2898 32.4511 71.2898 31.7932V27.0255C71.2898 26.3676 70.7563 25.8341 70.0984 25.8341C68.3295 25.8341 66.8907 24.395 66.8907 22.6262C66.8907 21.9683 66.3572 21.4348 65.6993 21.4348H54.6101C53.9522 21.4348 53.4187 21.9683 53.4187 22.6262C53.4187 24.3951 51.9797 25.8341 50.211 25.8341C49.5531 25.8341 49.0196 26.3676 49.0196 27.0255V50.7427H46.6925V17.3841L73.6176 17.3828V73.6172ZM60.1549 48.819C58.3248 48.819 56.836 47.3301 56.836 45.5001C56.836 43.6701 58.3249 42.1811 60.1549 42.1811C61.9849 42.1811 63.4738 43.67 63.4738 45.5C63.4738 47.33 61.9851 48.819 60.1549 48.819Z" fill="#5191FA"/>
</g>
<defs>
<clipPath id="clip0">
<rect width="61" height="61" fill="white" transform="translate(15 15)"/>
</clipPath>
</defs>
</svg>
