<svg width="30" height="29" viewBox="0 0 30 29" fill="none" xmlns="http://www.w3.org/2000/svg">
<path d="M25.4076 13.3219C25.3991 12.5572 25.3962 11.7869 25.3934 11.0194H23.1051C23.0966 11.7841 23.091 12.5516 23.0853 13.3219C22.315 13.3247 21.5503 13.3304 20.7857 13.3389V15.63C21.5503 15.6385 22.3206 15.6441 23.0853 15.6526C23.0938 16.4173 23.0938 17.1848 23.0994 17.9494H25.3906C25.3934 17.1848 25.3991 16.4173 25.4047 15.647C26.175 15.6385 26.9397 15.6357 27.7043 15.6272V13.336C26.9425 13.3304 26.1722 13.3304 25.4076 13.3219ZM10.3978 13.3332C10.395 14.248 10.3978 15.1655 10.4006 16.0803C11.9356 16.1313 13.4734 16.1086 15.0083 16.1313C14.3315 19.5382 9.70111 20.6427 7.25141 18.4167C4.7309 16.4654 4.84984 12.1862 7.46947 10.3737C9.3018 8.91241 11.9044 9.27208 13.7368 10.538C14.4561 9.87247 15.1301 9.1588 15.7787 8.42247C14.255 7.20753 12.3859 6.34092 10.3978 6.43155C6.24603 6.29278 2.43129 9.92911 2.36332 14.0837C2.09711 17.4793 4.32875 20.8069 7.47797 22.0077C10.6159 23.217 14.6402 22.3929 16.6453 19.5722C17.9678 17.7908 18.2538 15.4969 18.0981 13.3417C15.5294 13.3219 12.9636 13.3247 10.3978 13.3332Z" fill="white"/>
</svg>
