<svg width="29" height="30" viewBox="0 0 29 30" fill="none" xmlns="http://www.w3.org/2000/svg">
<path d="M24.9076 13.8219C24.8991 13.0572 24.8962 12.2869 24.8934 11.5194H22.6051C22.5966 12.2841 22.591 13.0516 22.5853 13.8219C21.815 13.8247 21.0503 13.8304 20.2857 13.8389V16.13C21.0503 16.1385 21.8206 16.1441 22.5853 16.1526C22.5938 16.9173 22.5938 17.6848 22.5994 18.4494H24.8906C24.8934 17.6848 24.8991 16.9173 24.9047 16.147C25.675 16.1385 26.4397 16.1357 27.2043 16.1272V13.836C26.4425 13.8304 25.6722 13.8304 24.9076 13.8219ZM9.89779 13.8332C9.89496 14.748 9.89779 15.6655 9.90062 16.5803C11.4356 16.6313 12.9734 16.6086 14.5083 16.6313C13.8315 20.0382 9.20111 21.1427 6.75141 18.9167C4.2309 16.9654 4.34984 12.6862 6.96947 10.8737C8.8018 9.41241 11.4044 9.77208 13.2368 11.038C13.9561 10.3725 14.6301 9.6588 15.2787 8.92247C13.755 7.70753 11.8859 6.84092 9.89779 6.93155C5.74603 6.79278 1.93129 10.4291 1.86332 14.5837C1.59711 17.9793 3.82875 21.3069 6.97797 22.5077C10.1159 23.717 14.1402 22.8929 16.1453 20.0722C17.4678 18.2908 17.7538 15.9969 17.5981 13.8417C15.0294 13.8219 12.4636 13.8247 9.89779 13.8332Z" fill="#949494"/>
</svg>
