<svg width="16" height="16" viewBox="0 0 16 16" fill="none" xmlns="http://www.w3.org/2000/svg">
<path d="M15.6085 8.31671C15.8605 7.99345 16 7.59738 16 7.1853C16 6.5315 15.6235 5.91264 15.0175 5.56754C14.8615 5.4787 14.6839 5.43195 14.503 5.43212H10.906L10.996 3.64253C11.017 3.21006 10.8595 2.79943 10.5535 2.48636C10.4033 2.33205 10.2222 2.20928 10.0212 2.12562C9.82019 2.04197 9.60367 1.99922 9.385 2.00001C8.605 2.00001 7.915 2.50966 7.708 3.23918L6.4195 7.76775H4.48C4.2145 7.76775 4 7.97598 4 8.23372V13.534C4 13.7918 4.2145 14 4.48 14H13.4995C13.6375 14 13.7725 13.9738 13.897 13.9214C14.611 13.6258 15.0715 12.9487 15.0715 12.1973C15.0715 12.0138 15.0445 11.8333 14.9905 11.6585C15.2425 11.3353 15.382 10.9392 15.382 10.5271C15.382 10.3437 15.355 10.1631 15.301 9.98835C15.553 9.66509 15.6925 9.26903 15.6925 8.85694C15.6895 8.67347 15.6625 8.49145 15.6085 8.31671ZM5.08 12.9516V8.81617H6.295V12.9516H5.08ZM14.626 7.81144L14.2975 8.0881L14.506 8.45796C14.5747 8.57979 14.6103 8.7166 14.6095 8.85548C14.6095 9.09575 14.5015 9.32436 14.3155 9.48162L13.987 9.75829L14.1955 10.1281C14.2642 10.25 14.2998 10.3868 14.299 10.5257C14.299 10.7659 14.191 10.9945 14.005 11.1518L13.6765 11.4285L13.885 11.7983C13.9537 11.9202 13.9893 12.057 13.9885 12.1959C13.9885 12.522 13.7905 12.8162 13.4845 12.9501H7.255V8.76957L8.7475 3.52021C8.78599 3.38567 8.8686 3.26697 8.98282 3.18209C9.09705 3.09722 9.23666 3.05081 9.3805 3.04988C9.4945 3.04988 9.607 3.08192 9.697 3.14744C9.8455 3.2552 9.925 3.41828 9.916 3.59156L9.772 6.48053H14.488C14.755 6.63925 14.92 6.90718 14.92 7.1853C14.92 7.42556 14.812 7.65272 14.626 7.81144Z" fill="black"/>
</svg>
