<svg width="11" height="14" viewBox="0 0 11 14" fill="none" xmlns="http://www.w3.org/2000/svg">
<path d="M5.27847 3.48889C4.89504 3.48889 4.52023 3.59153 4.20143 3.78382C3.88262 3.97611 3.63414 4.24943 3.48741 4.5692C3.34068 4.88897 3.30229 5.24083 3.37709 5.5803C3.4519 5.91977 3.63653 6.23159 3.90765 6.47633C4.17877 6.72107 4.5242 6.88774 4.90026 6.95527C5.27632 7.02279 5.66611 6.98813 6.02035 6.85568C6.37458 6.72323 6.67735 6.49893 6.89037 6.21114C7.10339 5.92335 7.21709 5.58501 7.21709 5.23889C7.2165 4.77492 7.01207 4.33011 6.64863 4.00204C6.2852 3.67396 5.79244 3.48942 5.27847 3.48889ZM5.27847 6.11389C5.08676 6.11389 4.89935 6.06257 4.73995 5.96643C4.58054 5.87028 4.4563 5.73363 4.38294 5.57374C4.30957 5.41385 4.29038 5.23792 4.32778 5.06819C4.36518 4.89845 4.4575 4.74254 4.59306 4.62017C4.72862 4.4978 4.90134 4.41447 5.08936 4.3807C5.27739 4.34694 5.47229 4.36427 5.64941 4.4305C5.82652 4.49672 5.97791 4.60887 6.08442 4.75277C6.19093 4.89666 6.24778 5.06583 6.24778 5.23889C6.24748 5.47087 6.14526 5.69328 5.96355 5.85731C5.78183 6.02135 5.53545 6.11362 5.27847 6.11389Z" fill="#848484"/>
<path d="M9.0028 1.87344C8.08173 1.0422 6.85222 0.548414 5.55156 0.487375C4.2509 0.426337 2.97129 0.802376 1.9597 1.54292C0.948118 2.28346 0.276266 3.336 0.0738157 4.49741C-0.128634 5.65882 0.152669 6.84675 0.863435 7.83194L4.52583 12.9073C4.60733 13.0202 4.71876 13.113 4.85003 13.1773C4.9813 13.2415 5.12826 13.2751 5.27757 13.2751C5.42689 13.2751 5.57384 13.2415 5.70511 13.1773C5.83638 13.113 5.94782 13.0202 6.02932 12.9073L9.69183 7.83194C10.3513 6.91804 10.6428 5.82726 10.5174 4.74244C10.3919 3.65762 9.85718 2.64469 9.0028 1.87344ZM8.87967 7.35433L5.27759 12.3459L1.67548 7.35433C0.572884 5.82639 0.809366 3.78162 2.23777 2.49215C2.63696 2.13179 3.11087 1.84593 3.63244 1.65091C4.15402 1.45588 4.71304 1.3555 5.27759 1.3555C5.84214 1.3555 6.40116 1.45588 6.92273 1.65091C7.4443 1.84593 7.91822 2.13179 8.31741 2.49215C9.74581 3.78162 9.98226 5.82639 8.87967 7.35433Z" fill="#848484"/>
</svg>
