<svg width="98" height="34" viewBox="0 0 98 34" fill="none" xmlns="http://www.w3.org/2000/svg">
<rect width="98" height="34" rx="6" fill="#FA5636"/>
<path d="M33.3262 18.8027C33.3262 18.4277 33.1934 18.1387 32.9277 17.9355C32.666 17.7324 32.1914 17.5273 31.5039 17.3203C30.8164 17.1133 30.2695 16.8828 29.8633 16.6289C29.0859 16.1406 28.6973 15.5039 28.6973 14.7188C28.6973 14.0312 28.9766 13.4648 29.5352 13.0195C30.0977 12.5742 30.8262 12.3516 31.7207 12.3516C32.3145 12.3516 32.8438 12.4609 33.3086 12.6797C33.7734 12.8984 34.1387 13.2109 34.4043 13.6172C34.6699 14.0195 34.8027 14.4668 34.8027 14.959H33.3262C33.3262 14.5137 33.1855 14.166 32.9043 13.916C32.627 13.6621 32.2285 13.5352 31.709 13.5352C31.2246 13.5352 30.8477 13.6387 30.5781 13.8457C30.3125 14.0527 30.1797 14.3418 30.1797 14.7129C30.1797 15.0254 30.3242 15.2871 30.6133 15.498C30.9023 15.7051 31.3789 15.9082 32.043 16.1074C32.707 16.3027 33.2402 16.5273 33.6426 16.7812C34.0449 17.0312 34.3398 17.3203 34.5273 17.6484C34.7148 17.9727 34.8086 18.3535 34.8086 18.791C34.8086 19.502 34.5352 20.0684 33.9883 20.4902C33.4453 20.9082 32.707 21.1172 31.7734 21.1172C31.1562 21.1172 30.5879 21.0039 30.0684 20.7773C29.5527 20.5469 29.1504 20.2305 28.8613 19.8281C28.5762 19.4258 28.4336 18.957 28.4336 18.4219H29.916C29.916 18.9062 30.0762 19.2812 30.3965 19.5469C30.7168 19.8125 31.1758 19.9453 31.7734 19.9453C32.2891 19.9453 32.6758 19.8418 32.9336 19.6348C33.1953 19.4238 33.3262 19.1465 33.3262 18.8027ZM37.4863 21H36.0625V14.6602H37.4863V21ZM35.9746 13.0137C35.9746 12.7949 36.043 12.6133 36.1797 12.4688C36.3203 12.3242 36.5195 12.252 36.7773 12.252C37.0352 12.252 37.2344 12.3242 37.375 12.4688C37.5156 12.6133 37.5859 12.7949 37.5859 13.0137C37.5859 13.2285 37.5156 13.4082 37.375 13.5527C37.2344 13.6934 37.0352 13.7637 36.7773 13.7637C36.5195 13.7637 36.3203 13.6934 36.1797 13.5527C36.043 13.4082 35.9746 13.2285 35.9746 13.0137ZM38.793 17.7832C38.793 16.7988 39.0234 16.0137 39.4844 15.4277C39.9492 14.8379 40.5645 14.543 41.3301 14.543C42.0527 14.543 42.6211 14.7949 43.0352 15.2988L43.0996 14.6602H44.3828V20.8066C44.3828 21.6387 44.123 22.2949 43.6035 22.7754C43.0879 23.2559 42.3906 23.4961 41.5117 23.4961C41.0469 23.4961 40.5918 23.3984 40.1465 23.2031C39.7051 23.0117 39.3691 22.7598 39.1387 22.4473L39.8125 21.5918C40.25 22.1113 40.7891 22.3711 41.4297 22.3711C41.9023 22.3711 42.2754 22.2422 42.5488 21.9844C42.8223 21.7305 42.959 21.3555 42.959 20.8594V20.4316C42.5488 20.8887 42.002 21.1172 41.3184 21.1172C40.5762 21.1172 39.9688 20.8223 39.4961 20.2324C39.0273 19.6426 38.793 18.8262 38.793 17.7832ZM40.2109 17.9062C40.2109 18.543 40.3398 19.0449 40.5977 19.4121C40.8594 19.7754 41.2207 19.957 41.6816 19.957C42.2559 19.957 42.6816 19.7109 42.959 19.2188V16.4297C42.6895 15.9492 42.2676 15.709 41.6934 15.709C41.2246 15.709 40.8594 15.8945 40.5977 16.2656C40.3398 16.6367 40.2109 17.1836 40.2109 17.9062ZM47.1719 14.6602L47.2129 15.3926C47.6816 14.8262 48.2969 14.543 49.0586 14.543C50.3789 14.543 51.0508 15.2988 51.0742 16.8105V21H49.6504V16.8926C49.6504 16.4902 49.5625 16.1934 49.3867 16.002C49.2148 15.8066 48.9316 15.709 48.5371 15.709C47.9629 15.709 47.5352 15.9688 47.2539 16.4883V21H45.8301V14.6602H47.1719ZM61.8965 12.4688V18.1699C61.8965 19.0762 61.6055 19.7949 61.0234 20.3262C60.4453 20.8535 59.6738 21.1172 58.709 21.1172C57.7324 21.1172 56.957 20.8574 56.3828 20.3379C55.8086 19.8145 55.5215 19.0898 55.5215 18.1641V12.4688H56.998V18.1758C56.998 18.7461 57.1426 19.1816 57.4316 19.4824C57.7207 19.7832 58.1465 19.9336 58.709 19.9336C59.8496 19.9336 60.4199 19.332 60.4199 18.1289V12.4688H61.8965ZM68.8984 17.8945C68.8984 18.875 68.6758 19.6582 68.2305 20.2441C67.7852 20.8262 67.1875 21.1172 66.4375 21.1172C65.7422 21.1172 65.1855 20.8887 64.7676 20.4316V23.4375H63.3438V14.6602H64.6562L64.7148 15.3047C65.1328 14.7969 65.7012 14.543 66.4199 14.543C67.1934 14.543 67.7988 14.832 68.2363 15.4102C68.6777 15.9844 68.8984 16.7832 68.8984 17.8066V17.8945ZM67.4805 17.7715C67.4805 17.1387 67.3535 16.6367 67.0996 16.2656C66.8496 15.8945 66.4902 15.709 66.0215 15.709C65.4395 15.709 65.0215 15.9492 64.7676 16.4297V19.2422C65.0254 19.7344 65.4473 19.9805 66.0332 19.9805C66.4863 19.9805 66.8398 19.7988 67.0938 19.4355C67.3516 19.0684 67.4805 18.5137 67.4805 17.7715Z" fill="white"/>
</svg>
