<svg width="16" height="15" viewBox="0 0 16 15" fill="none" xmlns="http://www.w3.org/2000/svg">
<path d="M7.29371 1.41143C7.52411 0.862856 8.39607 0.862856 8.6272 1.41143L10.1177 5.13837C10.2221 5.38536 10.4877 5.5498 10.7844 5.5498H14.4472C15.124 5.5498 15.4192 6.31026 14.8871 6.6827L12.2806 8.79965C12.1639 8.88068 12.0785 8.993 12.0369 9.12052C11.9952 9.24803 11.9994 9.38418 12.0488 9.50942L13.0006 13.1512C13.2325 13.7362 12.4822 14.2386 11.9148 13.8785L8.37447 11.8506C8.25322 11.7737 8.10864 11.7324 7.96045 11.7324C7.81226 11.7324 7.66768 11.7737 7.54643 11.8506L4.00606 13.8785C3.4394 14.2386 2.68841 13.7355 2.92026 13.1512L3.87213 9.50942C3.92151 9.38418 3.92567 9.24803 3.88402 9.12052C3.84237 8.993 3.75704 8.88068 3.64028 8.79965L1.03378 6.6827C0.500962 6.31026 0.797614 5.5498 1.473 5.5498H5.13578C5.28 5.55023 5.42096 5.51113 5.54002 5.43766C5.65908 5.36419 5.75062 5.25982 5.80253 5.13837L7.29298 1.41143H7.29371Z" stroke="#C9C9C9" stroke-linecap="round" stroke-linejoin="round"/>
</svg>
