<svg width="44" height="36" viewBox="0 0 44 36" fill="none" xmlns="http://www.w3.org/2000/svg">
<rect width="44" height="36" rx="5" fill="#C4C4C4"/>
<path d="M32.2057 16.7314C31.5814 11.8143 27.3714 8 22.2857 8C18.3486 8 14.9286 10.3 13.3671 13.9271C10.2986 14.8457 8 17.7429 8 20.8571C8 24.6529 10.9843 27.7357 14.7257 27.9586V28H30.8429V27.9957L30.8571 28C34.0086 28 36.5714 25.4371 36.5714 22.2857C36.5697 21.005 36.1387 19.7619 35.3473 18.755C34.5559 17.7481 33.4498 17.0356 32.2057 16.7314ZM16.5714 18H20.8571V13.7143H23.7143V18H28L22.2857 25.1429L16.5714 18Z" fill="white"/>
</svg>
